<?xml version="1.0" encoding="UTF-8" standalone="no"?>
<!DOCTYPE svg PUBLIC "-//W3C//DTD SVG 1.1//EN" "http://www.w3.org/Graphics/SVG/1.1/DTD/svg11.dtd">
<svg xmlns="http://www.w3.org/2000/svg" version="1.1" viewBox="0.00 0.00 314.00 238.00">
<g stroke-width="2.00" fill="none" stroke-linecap="butt">
<path stroke="#66594b" vector-effect="non-scaling-stroke" d="
  M 252.13 28.58
  Q 252.15 29.68 252.15 30.74
  Q 251.76 85.76 252.02 146.77
  C 252.06 156.74 248.56 158.88 239.08 158.70
  Q 237.94 158.68 237.78 159.81
  Q 237.76 159.95 237.79 160.09
  Q 238.03 161.25 239.23 161.25
  L 286.46 161.26
  A 1.18 1.17 89.5 0 0 287.63 160.06
  L 287.63 159.78
  A 0.97 0.96 -89.4 0 0 286.71 158.83
  C 278.55 158.47 273.54 158.35 273.51 148.40
  Q 273.36 93.44 273.51 30.98
  Q 273.53 22.61 281.47 22.12
  Q 284.32 21.95 286.95 21.58
  A 0.67 0.66 -2.1 0 0 287.53 20.96
  L 287.55 20.50
  Q 287.60 19.41 286.50 19.40
  L 252.60 19.31
  A 0.86 0.83 9.7 0 0 251.80 19.86
  L 210.91 129.50
  Q 210.37 130.95 209.81 129.51
  L 167.01 20.02
  Q 166.73 19.29 165.95 19.29
  L 131.40 19.39
  Q 130.43 19.39 130.55 20.35
  L 130.58 20.61
  A 1.33 1.33 0.0 0 0 131.90 21.77
  Q 136.54 21.77 140.85 22.96
  A 0.85 0.85 0.0 0 1 141.30 24.30
  C 138.86 27.47 133.50 27.08 130.09 25.92
  C 124.07 23.88 118.36 20.92 112.17 19.35
  Q 98.37 15.85 84.26 17.77
  C 55.01 21.76 34.54 41.27 27.39 69.43
  Q 23.71 83.88 24.90 101.37
  C 26.61 126.55 38.96 148.53 62.72 158.53
  C 74.22 163.36 86.62 164.28 99.10 162.94
  C 111.75 161.57 120.55 155.08 129.91 146.85
  C 135.18 142.21 145.14 137.71 147.40 148.23
  Q 148.49 153.34 148.38 160.59
  Q 148.37 161.27 149.05 161.27
  L 150.48 161.27
  A 0.69 0.68 -89.6 0 0 151.17 160.58
  Q 151.11 129.35 150.92 100.88
  Q 150.89 96.42 151.39 94.80
  C 153.02 89.57 158.85 89.10 163.57 88.80
  Q 164.86 88.71 164.71 87.43
  L 164.66 87.03
  A 0.89 0.89 0.0 0 0 163.78 86.24
  L 150.72 86.20
  Q 149.48 86.20 149.49 84.97
  L 149.69 35.48
  Q 149.70 33.20 150.53 35.33
  Q 173.84 95.91 198.46 160.03
  Q 199.08 161.65 200.84 161.40
  A 1.61 1.61 0.0 0 0 202.14 160.35
  Q 225.98 95.89 250.37 30.98
  Q 250.88 29.62 251.78 28.46
  Q 252.12 28.03 252.13 28.58"
/>
<path stroke="#3f372e" vector-effect="non-scaling-stroke" d="
  M 10.39 189.40
  Q 10.50 189.91 10.92 190.10
  Q 11.23 190.25 11.58 190.24
  Q 146.32 189.89 288.05 190.30
  A 17.59 12.31 19.5 0 0 290.36 190.17
  Q 292.09 189.96 291.71 188.87
  A 1.27 1.26 80.2 0 0 290.52 188.03
  Q 182.27 188.27 87.50 188.38
  Q 86.02 188.39 12.07 187.95
  C 11.29 187.94 10.56 188.26 9.82 188.50
  Q 9.54 188.58 9.43 188.86
  Q 9.36 189.04 9.48 189.22
  Q 9.59 189.42 9.81 189.36
  Q 9.96 189.32 10.10 189.26
  Q 10.34 189.14 10.39 189.40"
/>
<path stroke="#66594b" vector-effect="non-scaling-stroke" d="
  M 48.71 213.54
  Q 48.81 214.92 47.66 215.95
  C 44.55 218.73 39.91 218.15 38.12 214.28
  C 35.51 208.62 42.38 202.94 47.25 207.32
  Q 48.40 208.35 49.63 209.24
  A 0.38 0.38 0.0 0 0 50.23 208.92
  Q 50.19 207.63 49.31 206.70
  Q 45.57 202.74 40.53 204.59
  C 32.99 207.35 34.76 219.27 43.07 219.42
  Q 49.82 219.53 51.01 212.17
  Q 51.16 211.28 50.25 211.27
  Q 47.03 211.22 43.59 211.24
  Q 43.24 211.24 42.97 211.47
  Q 42.67 211.72 42.68 212.12
  A 0.77 0.76 -86.5 0 0 43.34 212.87
  Q 45.51 213.20 47.70 212.77
  A 0.86 0.85 82.1 0 1 48.71 213.54"
/>
<path stroke="#66594b" vector-effect="non-scaling-stroke" d="
  M 86.39 212.55
  A 1.23 1.22 -55.9 0 1 86.04 210.70
  Q 87.85 208.48 86.59 206.32
  C 85.06 203.71 79.51 203.93 77.01 204.39
  Q 76.47 204.48 76.47 205.03
  L 76.47 218.53
  A 0.66 0.66 0.0 0 0 77.10 219.19
  C 81.24 219.40 88.79 220.57 87.10 213.48
  Q 86.96 212.87 86.39 212.55"
/>
<path stroke="#66594b" vector-effect="non-scaling-stroke" d="
  M 102.42 213.45
  Q 105.97 211.95 105.13 207.69
  A 3.86 3.86 0.0 0 0 102.36 204.71
  Q 99.17 203.83 95.58 204.22
  Q 94.51 204.33 94.51 205.42
  L 94.54 218.73
  Q 94.54 219.34 95.15 219.30
  L 95.57 219.28
  Q 96.32 219.24 96.30 218.49
  L 96.21 214.48
  Q 96.20 213.65 97.02 213.73
  L 99.34 213.93
  Q 99.95 213.99 100.27 214.50
  L 102.61 218.22
  A 1.93 1.68 89.6 0 0 102.99 218.65
  Q 104.15 219.62 105.02 219.28
  Q 105.63 219.05 105.22 218.53
  L 102.12 214.61
  A 0.76 0.75 -30.7 0 1 102.42 213.45"
/>
<path stroke="#66594b" vector-effect="non-scaling-stroke" d="
  M 182.43 208.72
  Q 184.48 211.60 186.50 214.78
  A 1.42 1.42 0.0 0 0 188.92 214.75
  L 192.65 208.61
  Q 192.72 208.50 192.85 208.48
  Q 193.01 208.45 193.16 208.49
  Q 193.49 208.58 193.49 208.92
  L 193.49 218.56
  A 0.87 0.86 1.8 0 0 194.31 219.42
  L 194.71 219.44
  A 0.64 0.64 0.0 0 0 195.39 218.79
  L 195.33 204.97
  A 0.84 0.84 0.0 0 0 194.12 204.22
  Q 193.34 204.60 192.84 205.32
  Q 190.29 208.94 188.36 212.45
  A 0.76 0.75 44.3 0 1 187.04 212.46
  Q 184.66 208.37 181.88 204.64
  Q 181.67 204.35 181.33 204.21
  Q 180.14 203.72 179.93 204.98
  Q 179.93 205.03 179.93 205.09
  L 179.86 218.46
  A 0.82 0.82 0.0 0 0 180.71 219.29
  L 181.26 219.26
  A 0.76 0.75 88.4 0 0 181.98 218.49
  L 181.78 208.93
  Q 181.76 207.79 182.43 208.72"
/>
<path stroke="#66594b" vector-effect="non-scaling-stroke" d="
  M 204.9765 205.0363
  A 0.98 0.98 0.0 0 0 203.9931 204.0597
  L 203.7931 204.0604
  A 0.98 0.98 0.0 0 0 202.8165 205.0438
  L 202.8635 218.4837
  A 0.98 0.98 0.0 0 0 203.8469 219.4603
  L 204.0469 219.4596
  A 0.98 0.98 0.0 0 0 205.0235 218.4762
  L 204.9765 205.0363"
/>
<path stroke="#66594b" vector-effect="non-scaling-stroke" d="
  M 221.20 215.89
  Q 222.49 217.08 223.05 218.91
  Q 223.26 219.59 223.95 219.50
  L 224.40 219.44
  Q 225.15 219.33 224.85 218.64
  Q 222.20 212.46 219.69 206.05
  Q 219.19 204.76 218.62 204.38
  Q 217.42 203.60 216.87 204.92
  L 211.18 218.59
  Q 210.87 219.35 211.68 219.45
  Q 211.94 219.49 212.20 219.43
  Q 213.04 219.23 213.26 218.39
  Q 213.65 216.90 214.70 215.94
  A 1.12 1.12 0.0 0 1 215.76 215.69
  Q 218.06 216.36 220.32 215.68
  A 0.93 0.93 0.0 0 1 221.20 215.89"
/>
<path stroke="#66594b" vector-effect="non-scaling-stroke" d="
  M 233.46 208.40
  Q 234.04 208.51 234.37 209.00
  Q 237.53 213.78 241.27 218.92
  Q 241.87 219.73 242.82 219.48
  A 0.76 0.76 0.0 0 0 243.38 218.75
  L 243.35 204.59
  Q 243.35 204.05 242.81 204.05
  L 242.38 204.04
  Q 241.48 204.04 241.43 204.93
  Q 241.19 209.33 241.50 213.34
  Q 241.75 216.59 239.92 213.89
  Q 237.07 209.68 233.73 205.01
  Q 233.11 204.14 232.21 204.07
  A 0.78 0.78 0.0 0 0 231.36 204.85
  L 231.34 218.55
  Q 231.34 219.25 232.04 219.33
  L 232.54 219.38
  A 0.67 0.67 0.0 0 0 233.28 218.71
  L 233.18 208.63
  A 0.23 0.23 0.0 0 1 233.46 208.40"
/>
<path stroke="#66594b" vector-effect="non-scaling-stroke" d="
  M 266.02 211.80
  A 7.87 7.87 0.0 0 0 258.15 203.93
  A 7.87 7.87 0.0 0 0 250.28 211.80
  A 7.87 7.87 0.0 0 0 258.15 219.67
  A 7.87 7.87 0.0 0 0 266.02 211.80"
/>
<path stroke="#66594b" vector-effect="non-scaling-stroke" d="
  M 66.57 215.82
  Q 67.67 216.71 67.95 218.28
  A 1.27 1.26 86.0 0 0 69.14 219.32
  L 69.56 219.33
  A 0.45 0.45 0.0 0 0 69.99 218.70
  L 64.19 204.82
  A 1.05 1.04 -38.9 0 0 62.37 204.63
  Q 61.66 205.64 61.13 207.08
  Q 58.81 213.35 56.37 218.53
  Q 56.02 219.27 56.83 219.31
  L 57.15 219.33
  Q 57.91 219.38 58.23 218.68
  L 59.20 216.53
  A 1.44 1.43 -70.5 0 1 60.85 215.74
  Q 63.30 216.34 65.73 215.65
  Q 66.20 215.52 66.57 215.82"
/>
<path stroke="#66594b" vector-effect="non-scaling-stroke" d="
  M 114.5221 204.8416
  A 0.58 0.58 0.0 0 0 113.9432 204.2606
  L 113.3232 204.2595
  A 0.58 0.58 0.0 0 0 112.7421 204.8385
  L 112.7179 218.7584
  A 0.58 0.58 0.0 0 0 113.2968 219.3394
  L 113.9168 219.3405
  A 0.58 0.58 0.0 0 0 114.4979 218.7615
  L 114.5221 204.8416"
/>
<path stroke="#66594b" vector-effect="non-scaling-stroke" d="
  M 124.61 210.78
  A 0.34 0.34 0.0 0 1 124.27 210.45
  L 124.21 206.09
  A 0.34 0.34 0.0 0 1 124.57 205.74
  L 131.32 206.02
  A 0.34 0.34 0.0 0 0 131.67 205.71
  L 131.77 204.57
  A 0.34 0.34 0.0 0 0 131.43 204.20
  L 122.78 204.23
  A 0.34 0.34 0.0 0 0 122.44 204.57
  L 122.29 219.02
  A 0.34 0.34 0.0 0 0 122.64 219.36
  L 131.76 219.13
  A 0.34 0.34 0.0 0 0 132.09 218.76
  L 132.02 217.79
  A 0.34 0.34 0.0 0 0 131.68 217.47
  L 124.62 217.47
  A 0.34 0.34 0.0 0 1 124.28 217.13
  L 124.22 212.61
  A 0.34 0.34 0.0 0 1 124.58 212.26
  L 130.65 212.48
  A 0.34 0.34 0.0 0 0 131.00 212.13
  L 130.99 211.03
  A 0.34 0.34 0.0 0 0 130.64 210.70
  L 124.61 210.78"
/>
<path stroke="#66594b" vector-effect="non-scaling-stroke" d="
  M 141.61 217.44
  Q 140.36 217.41 140.35 216.16
  L 140.30 204.89
  A 0.66 0.66 0.0 0 0 139.64 204.23
  L 139.17 204.23
  Q 138.55 204.24 138.55 204.86
  L 138.59 218.51
  A 0.64 0.63 2.0 0 0 139.17 219.13
  Q 143.17 219.46 147.36 218.93
  Q 148.80 218.75 147.73 217.77
  Q 147.08 217.17 146.08 217.26
  Q 143.71 217.48 141.61 217.44"
/>
<path stroke="#66594b" vector-effect="non-scaling-stroke" d="
  M 156.57 217.49
  A 0.33 0.33 0.0 0 1 156.24 217.16
  L 156.27 212.62
  A 0.33 0.33 0.0 0 1 156.60 212.29
  L 162.95 212.34
  A 0.33 0.33 0.0 0 0 163.28 211.95
  L 163.12 211.00
  A 0.33 0.33 0.0 0 0 162.79 210.72
  L 156.73 210.78
  A 0.33 0.33 0.0 0 1 156.40 210.46
  L 156.20 206.02
  A 0.33 0.33 0.0 0 1 156.54 205.68
  L 163.20 205.99
  A 0.33 0.33 0.0 0 0 163.55 205.68
  L 163.64 204.53
  A 0.33 0.33 0.0 0 0 163.31 204.17
  L 155.00 204.26
  A 0.33 0.33 0.0 0 0 154.68 204.58
  L 154.51 218.95
  A 0.33 0.33 0.0 0 0 154.85 219.29
  L 163.82 219.16
  A 0.33 0.33 0.0 0 0 164.14 218.81
  L 164.07 217.81
  A 0.33 0.33 0.0 0 0 163.74 217.50
  L 156.57 217.49"
/>
<path stroke="#66594b" vector-effect="non-scaling-stroke" d="
  M 114.16 86.52
  A 0.95 0.93 22.6 0 1 114.81 86.26
  L 146.46 86.16
  Q 147.03 86.16 147.03 85.60
  Q 146.94 76.38 147.05 66.57
  C 147.09 63.28 145.08 60.42 144.18 57.19
  Q 143.16 53.52 141.42 50.01
  Q 129.62 26.18 103.99 22.43
  Q 93.91 20.95 84.01 23.16
  C 64.48 27.50 53.50 42.93 49.87 62.31
  Q 44.53 90.85 53.91 117.37
  C 62.06 140.43 79.33 156.91 105.36 154.49
  C 124.63 152.70 129.39 140.11 129.39 122.72
  Q 129.39 111.09 129.43 98.17
  C 129.47 88.62 122.29 89.00 115.07 88.84
  A 1.40 1.39 -1.6 0 1 113.71 87.56
  Q 113.67 86.99 114.16 86.52"
/>
<path stroke="#66594b" vector-effect="non-scaling-stroke" d="
  M 146.89 26.99
  L 146.37 26.99
  A 0.16 0.16 0.0 0 0 146.21 27.15
  L 146.21 27.29
  A 13.96 0.32 89.8 0 0 146.57 41.25
  L 146.77 41.25
  A 13.96 0.32 89.8 0 0 147.05 27.29
  L 147.05 27.15
  A 0.16 0.16 0.0 0 0 146.89 26.99"
/>
<path stroke="#66594b" vector-effect="non-scaling-stroke" d="
  M 78.19 206.88
  L 78.25 209.86
  A 1.05 1.05 0.0 0 0 79.31 210.89
  L 80.89 210.87
  A 4.51 2.34 -1.0 0 0 85.36 208.45
  L 85.36 208.05
  A 4.51 2.34 -1.0 0 0 80.81 205.79
  L 79.23 205.81
  A 1.05 1.05 0.0 0 0 78.19 206.88"
/>
<path stroke="#66594b" vector-effect="non-scaling-stroke" d="
  M 78.19 213.42
  L 78.25 216.58
  A 1.12 1.12 0.0 0 0 79.39 217.68
  L 82.64 217.62
  A 3.15 2.58 -1.1 0 0 85.74 214.98
  L 85.74 214.74
  A 3.15 2.58 -1.1 0 0 82.54 212.22
  L 79.29 212.28
  A 1.12 1.12 0.0 0 0 78.19 213.42"
/>
<path stroke="#66594b" vector-effect="non-scaling-stroke" d="
  M 96.27 206.74
  L 96.23 211.32
  A 0.84 0.84 0.0 0 0 97.06 212.17
  L 100.12 212.19
  A 3.32 3.05 0.5 0 0 103.47 209.17
  L 103.47 209.01
  A 3.32 3.05 0.5 0 0 100.18 205.93
  L 97.12 205.91
  A 0.84 0.84 0.0 0 0 96.27 206.74"
/>
<path stroke="#66594b" vector-effect="non-scaling-stroke" d="
  M 215.19 213.49
  A 0.40 0.40 0.0 0 0 215.57 214.04
  L 220.40 214.03
  A 0.40 0.40 0.0 0 0 220.77 213.48
  L 218.34 207.57
  A 0.40 0.40 0.0 0 0 217.60 207.57
  L 215.19 213.49"
/>
<path stroke="#66594b" vector-effect="non-scaling-stroke" d="
  M 263.99 211.74
  A 5.85 5.85 0.0 0 0 258.14 205.89
  A 5.85 5.85 0.0 0 0 252.29 211.74
  A 5.85 5.85 0.0 0 0 258.14 217.59
  A 5.85 5.85 0.0 0 0 263.99 211.74"
/>
<path stroke="#66594b" vector-effect="non-scaling-stroke" d="
  M 60.32 213.59
  A 0.40 0.40 0.0 0 0 60.71 214.13
  L 65.76 213.98
  A 0.40 0.40 0.0 0 0 66.11 213.42
  L 63.41 207.54
  A 0.40 0.40 0.0 0 0 62.67 207.56
  L 60.32 213.59"
/>
</g>
<path fill="#000000" d="
  M 0.00 0.00
  L 314.00 0.00
  L 314.00 238.00
  L 0.00 238.00
  L 0.00 0.00
  Z
  M 252.13 28.58
  Q 252.15 29.68 252.15 30.74
  Q 251.76 85.76 252.02 146.77
  C 252.06 156.74 248.56 158.88 239.08 158.70
  Q 237.94 158.68 237.78 159.81
  Q 237.76 159.95 237.79 160.09
  Q 238.03 161.25 239.23 161.25
  L 286.46 161.26
  A 1.18 1.17 89.5 0 0 287.63 160.06
  L 287.63 159.78
  A 0.97 0.96 -89.4 0 0 286.71 158.83
  C 278.55 158.47 273.54 158.35 273.51 148.40
  Q 273.36 93.44 273.51 30.98
  Q 273.53 22.61 281.47 22.12
  Q 284.32 21.95 286.95 21.58
  A 0.67 0.66 -2.1 0 0 287.53 20.96
  L 287.55 20.50
  Q 287.60 19.41 286.50 19.40
  L 252.60 19.31
  A 0.86 0.83 9.7 0 0 251.80 19.86
  L 210.91 129.50
  Q 210.37 130.95 209.81 129.51
  L 167.01 20.02
  Q 166.73 19.29 165.95 19.29
  L 131.40 19.39
  Q 130.43 19.39 130.55 20.35
  L 130.58 20.61
  A 1.33 1.33 0.0 0 0 131.90 21.77
  Q 136.54 21.77 140.85 22.96
  A 0.85 0.85 0.0 0 1 141.30 24.30
  C 138.86 27.47 133.50 27.08 130.09 25.92
  C 124.07 23.88 118.36 20.92 112.17 19.35
  Q 98.37 15.85 84.26 17.77
  C 55.01 21.76 34.54 41.27 27.39 69.43
  Q 23.71 83.88 24.90 101.37
  C 26.61 126.55 38.96 148.53 62.72 158.53
  C 74.22 163.36 86.62 164.28 99.10 162.94
  C 111.75 161.57 120.55 155.08 129.91 146.85
  C 135.18 142.21 145.14 137.71 147.40 148.23
  Q 148.49 153.34 148.38 160.59
  Q 148.37 161.27 149.05 161.27
  L 150.48 161.27
  A 0.69 0.68 -89.6 0 0 151.17 160.58
  Q 151.11 129.35 150.92 100.88
  Q 150.89 96.42 151.39 94.80
  C 153.02 89.57 158.85 89.10 163.57 88.80
  Q 164.86 88.71 164.71 87.43
  L 164.66 87.03
  A 0.89 0.89 0.0 0 0 163.78 86.24
  L 150.72 86.20
  Q 149.48 86.20 149.49 84.97
  L 149.69 35.48
  Q 149.70 33.20 150.53 35.33
  Q 173.84 95.91 198.46 160.03
  Q 199.08 161.65 200.84 161.40
  A 1.61 1.61 0.0 0 0 202.14 160.35
  Q 225.98 95.89 250.37 30.98
  Q 250.88 29.62 251.78 28.46
  Q 252.12 28.03 252.13 28.58
  Z
  M 10.39 189.40
  Q 10.50 189.91 10.92 190.10
  Q 11.23 190.25 11.58 190.24
  Q 146.32 189.89 288.05 190.30
  A 17.59 12.31 19.5 0 0 290.36 190.17
  Q 292.09 189.96 291.71 188.87
  A 1.27 1.26 80.2 0 0 290.52 188.03
  Q 182.27 188.27 87.50 188.38
  Q 86.02 188.39 12.07 187.95
  C 11.29 187.94 10.56 188.26 9.82 188.50
  Q 9.54 188.58 9.43 188.86
  Q 9.36 189.04 9.48 189.22
  Q 9.59 189.42 9.81 189.36
  Q 9.96 189.32 10.10 189.26
  Q 10.34 189.14 10.39 189.40
  Z
  M 48.71 213.54
  Q 48.81 214.92 47.66 215.95
  C 44.55 218.73 39.91 218.15 38.12 214.28
  C 35.51 208.62 42.38 202.94 47.25 207.32
  Q 48.40 208.35 49.63 209.24
  A 0.38 0.38 0.0 0 0 50.23 208.92
  Q 50.19 207.63 49.31 206.70
  Q 45.57 202.74 40.53 204.59
  C 32.99 207.35 34.76 219.27 43.07 219.42
  Q 49.82 219.53 51.01 212.17
  Q 51.16 211.28 50.25 211.27
  Q 47.03 211.22 43.59 211.24
  Q 43.24 211.24 42.97 211.47
  Q 42.67 211.72 42.68 212.12
  A 0.77 0.76 -86.5 0 0 43.34 212.87
  Q 45.51 213.20 47.70 212.77
  A 0.86 0.85 82.1 0 1 48.71 213.54
  Z
  M 86.39 212.55
  A 1.23 1.22 -55.9 0 1 86.04 210.70
  Q 87.85 208.48 86.59 206.32
  C 85.06 203.71 79.51 203.93 77.01 204.39
  Q 76.47 204.48 76.47 205.03
  L 76.47 218.53
  A 0.66 0.66 0.0 0 0 77.10 219.19
  C 81.24 219.40 88.79 220.57 87.10 213.48
  Q 86.96 212.87 86.39 212.55
  Z
  M 102.42 213.45
  Q 105.97 211.95 105.13 207.69
  A 3.86 3.86 0.0 0 0 102.36 204.71
  Q 99.17 203.83 95.58 204.22
  Q 94.51 204.33 94.51 205.42
  L 94.54 218.73
  Q 94.54 219.34 95.15 219.30
  L 95.57 219.28
  Q 96.32 219.24 96.30 218.49
  L 96.21 214.48
  Q 96.20 213.65 97.02 213.73
  L 99.34 213.93
  Q 99.95 213.99 100.27 214.50
  L 102.61 218.22
  A 1.93 1.68 89.6 0 0 102.99 218.65
  Q 104.15 219.62 105.02 219.28
  Q 105.63 219.05 105.22 218.53
  L 102.12 214.61
  A 0.76 0.75 -30.7 0 1 102.42 213.45
  Z
  M 182.43 208.72
  Q 184.48 211.60 186.50 214.78
  A 1.42 1.42 0.0 0 0 188.92 214.75
  L 192.65 208.61
  Q 192.72 208.50 192.85 208.48
  Q 193.01 208.45 193.16 208.49
  Q 193.49 208.58 193.49 208.92
  L 193.49 218.56
  A 0.87 0.86 1.8 0 0 194.31 219.42
  L 194.71 219.44
  A 0.64 0.64 0.0 0 0 195.39 218.79
  L 195.33 204.97
  A 0.84 0.84 0.0 0 0 194.12 204.22
  Q 193.34 204.60 192.84 205.32
  Q 190.29 208.94 188.36 212.45
  A 0.76 0.75 44.3 0 1 187.04 212.46
  Q 184.66 208.37 181.88 204.64
  Q 181.67 204.35 181.33 204.21
  Q 180.14 203.72 179.93 204.98
  Q 179.93 205.03 179.93 205.09
  L 179.86 218.46
  A 0.82 0.82 0.0 0 0 180.71 219.29
  L 181.26 219.26
  A 0.76 0.75 88.4 0 0 181.98 218.49
  L 181.78 208.93
  Q 181.76 207.79 182.43 208.72
  Z
  M 204.9765 205.0363
  A 0.98 0.98 0.0 0 0 203.9931 204.0597
  L 203.7931 204.0604
  A 0.98 0.98 0.0 0 0 202.8165 205.0438
  L 202.8635 218.4837
  A 0.98 0.98 0.0 0 0 203.8469 219.4603
  L 204.0469 219.4596
  A 0.98 0.98 0.0 0 0 205.0235 218.4762
  L 204.9765 205.0363
  Z
  M 221.20 215.89
  Q 222.49 217.08 223.05 218.91
  Q 223.26 219.59 223.95 219.50
  L 224.40 219.44
  Q 225.15 219.33 224.85 218.64
  Q 222.20 212.46 219.69 206.05
  Q 219.19 204.76 218.62 204.38
  Q 217.42 203.60 216.87 204.92
  L 211.18 218.59
  Q 210.87 219.35 211.68 219.45
  Q 211.94 219.49 212.20 219.43
  Q 213.04 219.23 213.26 218.39
  Q 213.65 216.90 214.70 215.94
  A 1.12 1.12 0.0 0 1 215.76 215.69
  Q 218.06 216.36 220.32 215.68
  A 0.93 0.93 0.0 0 1 221.20 215.89
  Z
  M 233.46 208.40
  Q 234.04 208.51 234.37 209.00
  Q 237.53 213.78 241.27 218.92
  Q 241.87 219.73 242.82 219.48
  A 0.76 0.76 0.0 0 0 243.38 218.75
  L 243.35 204.59
  Q 243.35 204.05 242.81 204.05
  L 242.38 204.04
  Q 241.48 204.04 241.43 204.93
  Q 241.19 209.33 241.50 213.34
  Q 241.75 216.59 239.92 213.89
  Q 237.07 209.68 233.73 205.01
  Q 233.11 204.14 232.21 204.07
  A 0.78 0.78 0.0 0 0 231.36 204.85
  L 231.34 218.55
  Q 231.34 219.25 232.04 219.33
  L 232.54 219.38
  A 0.67 0.67 0.0 0 0 233.28 218.71
  L 233.18 208.63
  A 0.23 0.23 0.0 0 1 233.46 208.40
  Z
  M 266.02 211.80
  A 7.87 7.87 0.0 0 0 258.15 203.93
  A 7.87 7.87 0.0 0 0 250.28 211.80
  A 7.87 7.87 0.0 0 0 258.15 219.67
  A 7.87 7.87 0.0 0 0 266.02 211.80
  Z
  M 66.57 215.82
  Q 67.67 216.71 67.95 218.28
  A 1.27 1.26 86.0 0 0 69.14 219.32
  L 69.56 219.33
  A 0.45 0.45 0.0 0 0 69.99 218.70
  L 64.19 204.82
  A 1.05 1.04 -38.9 0 0 62.37 204.63
  Q 61.66 205.64 61.13 207.08
  Q 58.81 213.35 56.37 218.53
  Q 56.02 219.27 56.83 219.31
  L 57.15 219.33
  Q 57.91 219.38 58.23 218.68
  L 59.20 216.53
  A 1.44 1.43 -70.5 0 1 60.85 215.74
  Q 63.30 216.34 65.73 215.65
  Q 66.20 215.52 66.57 215.82
  Z
  M 114.5221 204.8416
  A 0.58 0.58 0.0 0 0 113.9432 204.2606
  L 113.3232 204.2595
  A 0.58 0.58 0.0 0 0 112.7421 204.8385
  L 112.7179 218.7584
  A 0.58 0.58 0.0 0 0 113.2968 219.3394
  L 113.9168 219.3405
  A 0.58 0.58 0.0 0 0 114.4979 218.7615
  L 114.5221 204.8416
  Z
  M 124.61 210.78
  A 0.34 0.34 0.0 0 1 124.27 210.45
  L 124.21 206.09
  A 0.34 0.34 0.0 0 1 124.57 205.74
  L 131.32 206.02
  A 0.34 0.34 0.0 0 0 131.67 205.71
  L 131.77 204.57
  A 0.34 0.34 0.0 0 0 131.43 204.20
  L 122.78 204.23
  A 0.34 0.34 0.0 0 0 122.44 204.57
  L 122.29 219.02
  A 0.34 0.34 0.0 0 0 122.64 219.36
  L 131.76 219.13
  A 0.34 0.34 0.0 0 0 132.09 218.76
  L 132.02 217.79
  A 0.34 0.34 0.0 0 0 131.68 217.47
  L 124.62 217.47
  A 0.34 0.34 0.0 0 1 124.28 217.13
  L 124.22 212.61
  A 0.34 0.34 0.0 0 1 124.58 212.26
  L 130.65 212.48
  A 0.34 0.34 0.0 0 0 131.00 212.13
  L 130.99 211.03
  A 0.34 0.34 0.0 0 0 130.64 210.70
  L 124.61 210.78
  Z
  M 141.61 217.44
  Q 140.36 217.41 140.35 216.16
  L 140.30 204.89
  A 0.66 0.66 0.0 0 0 139.64 204.23
  L 139.17 204.23
  Q 138.55 204.24 138.55 204.86
  L 138.59 218.51
  A 0.64 0.63 2.0 0 0 139.17 219.13
  Q 143.17 219.46 147.36 218.93
  Q 148.80 218.75 147.73 217.77
  Q 147.08 217.17 146.08 217.26
  Q 143.71 217.48 141.61 217.44
  Z
  M 156.57 217.49
  A 0.33 0.33 0.0 0 1 156.24 217.16
  L 156.27 212.62
  A 0.33 0.33 0.0 0 1 156.60 212.29
  L 162.95 212.34
  A 0.33 0.33 0.0 0 0 163.28 211.95
  L 163.12 211.00
  A 0.33 0.33 0.0 0 0 162.79 210.72
  L 156.73 210.78
  A 0.33 0.33 0.0 0 1 156.40 210.46
  L 156.20 206.02
  A 0.33 0.33 0.0 0 1 156.54 205.68
  L 163.20 205.99
  A 0.33 0.33 0.0 0 0 163.55 205.68
  L 163.64 204.53
  A 0.33 0.33 0.0 0 0 163.31 204.17
  L 155.00 204.26
  A 0.33 0.33 0.0 0 0 154.68 204.58
  L 154.51 218.95
  A 0.33 0.33 0.0 0 0 154.85 219.29
  L 163.82 219.16
  A 0.33 0.33 0.0 0 0 164.14 218.81
  L 164.07 217.81
  A 0.33 0.33 0.0 0 0 163.74 217.50
  L 156.57 217.49
  Z"
/>
<path fill="#cbb196" d="
  M 251.78 28.46
  Q 250.88 29.62 250.37 30.98
  Q 225.98 95.89 202.14 160.35
  A 1.61 1.61 0.0 0 1 200.84 161.40
  Q 199.08 161.65 198.46 160.03
  Q 173.84 95.91 150.53 35.33
  Q 149.70 33.20 149.69 35.48
  L 149.49 84.97
  Q 149.48 86.20 150.72 86.20
  L 163.78 86.24
  A 0.89 0.89 0.0 0 1 164.66 87.03
  L 164.71 87.43
  Q 164.86 88.71 163.57 88.80
  C 158.85 89.10 153.02 89.57 151.39 94.80
  Q 150.89 96.42 150.92 100.88
  Q 151.11 129.35 151.17 160.58
  A 0.69 0.68 -89.6 0 1 150.48 161.27
  L 149.05 161.27
  Q 148.37 161.27 148.38 160.59
  Q 148.49 153.34 147.40 148.23
  C 145.14 137.71 135.18 142.21 129.91 146.85
  C 120.55 155.08 111.75 161.57 99.10 162.94
  C 86.62 164.28 74.22 163.36 62.72 158.53
  C 38.96 148.53 26.61 126.55 24.90 101.37
  Q 23.71 83.88 27.39 69.43
  C 34.54 41.27 55.01 21.76 84.26 17.77
  Q 98.37 15.85 112.17 19.35
  C 118.36 20.92 124.07 23.88 130.09 25.92
  C 133.50 27.08 138.86 27.47 141.30 24.30
  A 0.85 0.85 0.0 0 0 140.85 22.96
  Q 136.54 21.77 131.90 21.77
  A 1.33 1.33 0.0 0 1 130.58 20.61
  L 130.55 20.35
  Q 130.43 19.39 131.40 19.39
  L 165.95 19.29
  Q 166.73 19.29 167.01 20.02
  L 209.81 129.51
  Q 210.37 130.95 210.91 129.50
  L 251.80 19.86
  A 0.86 0.83 9.7 0 1 252.60 19.31
  L 286.50 19.40
  Q 287.60 19.41 287.55 20.50
  L 287.53 20.96
  A 0.67 0.66 -2.1 0 1 286.95 21.58
  Q 284.32 21.95 281.47 22.12
  Q 273.53 22.61 273.51 30.98
  Q 273.36 93.44 273.51 148.40
  C 273.54 158.35 278.55 158.47 286.71 158.83
  A 0.97 0.96 -89.4 0 1 287.63 159.78
  L 287.63 160.06
  A 1.18 1.17 89.5 0 1 286.46 161.26
  L 239.23 161.25
  Q 238.03 161.25 237.79 160.09
  Q 237.76 159.95 237.78 159.81
  Q 237.94 158.68 239.08 158.70
  C 248.56 158.88 252.06 156.74 252.02 146.77
  Q 251.76 85.76 252.15 30.74
  Q 252.15 29.68 252.13 28.58
  Q 252.12 28.03 251.78 28.46
  Z
  M 114.16 86.52
  A 0.95 0.93 22.6 0 1 114.81 86.26
  L 146.46 86.16
  Q 147.03 86.16 147.03 85.60
  Q 146.94 76.38 147.05 66.57
  C 147.09 63.28 145.08 60.42 144.18 57.19
  Q 143.16 53.52 141.42 50.01
  Q 129.62 26.18 103.99 22.43
  Q 93.91 20.95 84.01 23.16
  C 64.48 27.50 53.50 42.93 49.87 62.31
  Q 44.53 90.85 53.91 117.37
  C 62.06 140.43 79.33 156.91 105.36 154.49
  C 124.63 152.70 129.39 140.11 129.39 122.72
  Q 129.39 111.09 129.43 98.17
  C 129.47 88.62 122.29 89.00 115.07 88.84
  A 1.40 1.39 -1.6 0 1 113.71 87.56
  Q 113.67 86.99 114.16 86.52
  Z
  M 146.89 26.99
  L 146.37 26.99
  A 0.16 0.16 0.0 0 0 146.21 27.15
  L 146.21 27.29
  A 13.96 0.32 89.8 0 0 146.57 41.25
  L 146.77 41.25
  A 13.96 0.32 89.8 0 0 147.05 27.29
  L 147.05 27.15
  A 0.16 0.16 0.0 0 0 146.89 26.99
  Z"
/>
<path fill="#000000" d="
  M 114.16 86.52
  Q 113.67 86.99 113.71 87.56
  A 1.40 1.39 -1.6 0 0 115.07 88.84
  C 122.29 89.00 129.47 88.62 129.43 98.17
  Q 129.39 111.09 129.39 122.72
  C 129.39 140.11 124.63 152.70 105.36 154.49
  C 79.33 156.91 62.06 140.43 53.91 117.37
  Q 44.53 90.85 49.87 62.31
  C 53.50 42.93 64.48 27.50 84.01 23.16
  Q 93.91 20.95 103.99 22.43
  Q 129.62 26.18 141.42 50.01
  Q 143.16 53.52 144.18 57.19
  C 145.08 60.42 147.09 63.28 147.05 66.57
  Q 146.94 76.38 147.03 85.60
  Q 147.03 86.16 146.46 86.16
  L 114.81 86.26
  A 0.95 0.93 22.6 0 0 114.16 86.52
  Z"
/>
<path fill="#000000" d="
  M 146.89 26.99
  A 0.16 0.16 0.0 0 1 147.05 27.15
  L 147.05 27.29
  A 13.96 0.32 89.8 0 1 146.77 41.25
  L 146.57 41.25
  A 13.96 0.32 89.8 0 1 146.21 27.29
  L 146.21 27.15
  A 0.16 0.16 0.0 0 1 146.37 26.99
  L 146.89 26.99
  Z"
/>
<path fill="#7d6d5b" d="
  M 10.10 189.26
  Q 9.96 189.32 9.81 189.36
  Q 9.59 189.42 9.48 189.22
  Q 9.36 189.04 9.43 188.86
  Q 9.54 188.58 9.82 188.50
  C 10.56 188.26 11.29 187.94 12.07 187.95
  Q 86.02 188.39 87.50 188.38
  Q 182.27 188.27 290.52 188.03
  A 1.27 1.26 80.2 0 1 291.71 188.87
  Q 292.09 189.96 290.36 190.17
  A 17.59 12.31 19.5 0 1 288.05 190.30
  Q 146.32 189.89 11.58 190.24
  Q 11.23 190.25 10.92 190.10
  Q 10.50 189.91 10.39 189.40
  Q 10.34 189.14 10.10 189.26
  Z"
/>
<path fill="#cbb196" d="
  M 48.71 213.54
  A 0.86 0.85 82.1 0 0 47.70 212.77
  Q 45.51 213.20 43.34 212.87
  A 0.77 0.76 -86.5 0 1 42.68 212.12
  Q 42.67 211.72 42.97 211.47
  Q 43.24 211.24 43.59 211.24
  Q 47.03 211.22 50.25 211.27
  Q 51.16 211.28 51.01 212.17
  Q 49.82 219.53 43.07 219.42
  C 34.76 219.27 32.99 207.35 40.53 204.59
  Q 45.57 202.74 49.31 206.70
  Q 50.19 207.63 50.23 208.92
  A 0.38 0.38 0.0 0 1 49.63 209.24
  Q 48.40 208.35 47.25 207.32
  C 42.38 202.94 35.51 208.62 38.12 214.28
  C 39.91 218.15 44.55 218.73 47.66 215.95
  Q 48.81 214.92 48.71 213.54
  Z"
/>
<path fill="#cbb196" d="
  M 86.39 212.55
  Q 86.96 212.87 87.10 213.48
  C 88.79 220.57 81.24 219.40 77.10 219.19
  A 0.66 0.66 0.0 0 1 76.47 218.53
  L 76.47 205.03
  Q 76.47 204.48 77.01 204.39
  C 79.51 203.93 85.06 203.71 86.59 206.32
  Q 87.85 208.48 86.04 210.70
  A 1.23 1.22 -55.9 0 0 86.39 212.55
  Z
  M 78.19 206.88
  L 78.25 209.86
  A 1.05 1.05 0.0 0 0 79.31 210.89
  L 80.89 210.87
  A 4.51 2.34 -1.0 0 0 85.36 208.45
  L 85.36 208.05
  A 4.51 2.34 -1.0 0 0 80.81 205.79
  L 79.23 205.81
  A 1.05 1.05 0.0 0 0 78.19 206.88
  Z
  M 78.19 213.42
  L 78.25 216.58
  A 1.12 1.12 0.0 0 0 79.39 217.68
  L 82.64 217.62
  A 3.15 2.58 -1.1 0 0 85.74 214.98
  L 85.74 214.74
  A 3.15 2.58 -1.1 0 0 82.54 212.22
  L 79.29 212.28
  A 1.12 1.12 0.0 0 0 78.19 213.42
  Z"
/>
<path fill="#cbb196" d="
  M 102.42 213.45
  A 0.76 0.75 -30.7 0 0 102.12 214.61
  L 105.22 218.53
  Q 105.63 219.05 105.02 219.28
  Q 104.15 219.62 102.99 218.65
  A 1.93 1.68 89.6 0 1 102.61 218.22
  L 100.27 214.50
  Q 99.95 213.99 99.34 213.93
  L 97.02 213.73
  Q 96.20 213.65 96.21 214.48
  L 96.30 218.49
  Q 96.32 219.24 95.57 219.28
  L 95.15 219.30
  Q 94.54 219.34 94.54 218.73
  L 94.51 205.42
  Q 94.51 204.33 95.58 204.22
  Q 99.17 203.83 102.36 204.71
  A 3.86 3.86 0.0 0 1 105.13 207.69
  Q 105.97 211.95 102.42 213.45
  Z
  M 96.27 206.74
  L 96.23 211.32
  A 0.84 0.84 0.0 0 0 97.06 212.17
  L 100.12 212.19
  A 3.32 3.05 0.5 0 0 103.47 209.17
  L 103.47 209.01
  A 3.32 3.05 0.5 0 0 100.18 205.93
  L 97.12 205.91
  A 0.84 0.84 0.0 0 0 96.27 206.74
  Z"
/>
<path fill="#cbb196" d="
  M 181.78 208.93
  L 181.98 218.49
  A 0.76 0.75 88.4 0 1 181.26 219.26
  L 180.71 219.29
  A 0.82 0.82 0.0 0 1 179.86 218.46
  L 179.93 205.09
  Q 179.93 205.03 179.93 204.98
  Q 180.14 203.72 181.33 204.21
  Q 181.67 204.35 181.88 204.64
  Q 184.66 208.37 187.04 212.46
  A 0.76 0.75 44.3 0 0 188.36 212.45
  Q 190.29 208.94 192.84 205.32
  Q 193.34 204.60 194.12 204.22
  A 0.84 0.84 0.0 0 1 195.33 204.97
  L 195.39 218.79
  A 0.64 0.64 0.0 0 1 194.71 219.44
  L 194.31 219.42
  A 0.87 0.86 1.8 0 1 193.49 218.56
  L 193.49 208.92
  Q 193.49 208.58 193.16 208.49
  Q 193.01 208.45 192.85 208.48
  Q 192.72 208.50 192.65 208.61
  L 188.92 214.75
  A 1.42 1.42 0.0 0 1 186.50 214.78
  Q 184.48 211.60 182.43 208.72
  Q 181.76 207.79 181.78 208.93
  Z"
/>
<rect fill="#cbb196" x="-1.08" y="-7.70" transform="translate(203.92,211.76) rotate(-0.2)" width="2.16" height="15.40" rx="0.98"/>
<path fill="#cbb196" d="
  M 220.32 215.68
  Q 218.06 216.36 215.76 215.69
  A 1.12 1.12 0.0 0 0 214.70 215.94
  Q 213.65 216.90 213.26 218.39
  Q 213.04 219.23 212.20 219.43
  Q 211.94 219.49 211.68 219.45
  Q 210.87 219.35 211.18 218.59
  L 216.87 204.92
  Q 217.42 203.60 218.62 204.38
  Q 219.19 204.76 219.69 206.05
  Q 222.20 212.46 224.85 218.64
  Q 225.15 219.33 224.40 219.44
  L 223.95 219.50
  Q 223.26 219.59 223.05 218.91
  Q 222.49 217.08 221.20 215.89
  A 0.93 0.93 0.0 0 0 220.32 215.68
  Z
  M 215.19 213.49
  A 0.40 0.40 0.0 0 0 215.57 214.04
  L 220.40 214.03
  A 0.40 0.40 0.0 0 0 220.77 213.48
  L 218.34 207.57
  A 0.40 0.40 0.0 0 0 217.60 207.57
  L 215.19 213.49
  Z"
/>
<path fill="#cbb196" d="
  M 233.46 208.40
  A 0.23 0.23 0.0 0 0 233.18 208.63
  L 233.28 218.71
  A 0.67 0.67 0.0 0 1 232.54 219.38
  L 232.04 219.33
  Q 231.34 219.25 231.34 218.55
  L 231.36 204.85
  A 0.78 0.78 0.0 0 1 232.21 204.07
  Q 233.11 204.14 233.73 205.01
  Q 237.07 209.68 239.92 213.89
  Q 241.75 216.59 241.50 213.34
  Q 241.19 209.33 241.43 204.93
  Q 241.48 204.04 242.38 204.04
  L 242.81 204.05
  Q 243.35 204.05 243.35 204.59
  L 243.38 218.75
  A 0.76 0.76 0.0 0 1 242.82 219.48
  Q 241.87 219.73 241.27 218.92
  Q 237.53 213.78 234.37 209.00
  Q 234.04 208.51 233.46 208.40
  Z"
/>
<path fill="#cbb196" d="
  M 266.02 211.80
  A 7.87 7.87 0.0 0 1 258.15 219.67
  A 7.87 7.87 0.0 0 1 250.28 211.80
  A 7.87 7.87 0.0 0 1 258.15 203.93
  A 7.87 7.87 0.0 0 1 266.02 211.80
  Z
  M 263.99 211.74
  A 5.85 5.85 0.0 0 0 258.14 205.89
  A 5.85 5.85 0.0 0 0 252.29 211.74
  A 5.85 5.85 0.0 0 0 258.14 217.59
  A 5.85 5.85 0.0 0 0 263.99 211.74
  Z"
/>
<path fill="#cbb196" d="
  M 65.73 215.65
  Q 63.30 216.34 60.85 215.74
  A 1.44 1.43 -70.5 0 0 59.20 216.53
  L 58.23 218.68
  Q 57.91 219.38 57.15 219.33
  L 56.83 219.31
  Q 56.02 219.27 56.37 218.53
  Q 58.81 213.35 61.13 207.08
  Q 61.66 205.64 62.37 204.63
  A 1.05 1.04 -38.9 0 1 64.19 204.82
  L 69.99 218.70
  A 0.45 0.45 0.0 0 1 69.56 219.33
  L 69.14 219.32
  A 1.27 1.26 86.0 0 1 67.95 218.28
  Q 67.67 216.71 66.57 215.82
  Q 66.20 215.52 65.73 215.65
  Z
  M 60.32 213.59
  A 0.40 0.40 0.0 0 0 60.71 214.13
  L 65.76 213.98
  A 0.40 0.40 0.0 0 0 66.11 213.42
  L 63.41 207.54
  A 0.40 0.40 0.0 0 0 62.67 207.56
  L 60.32 213.59
  Z"
/>
<rect fill="#cbb196" x="-0.89" y="-7.54" transform="translate(113.62,211.80) rotate(0.1)" width="1.78" height="15.08" rx="0.58"/>
<path fill="#cbb196" d="
  M 124.61 210.78
  L 130.64 210.70
  A 0.34 0.34 0.0 0 1 130.99 211.03
  L 131.00 212.13
  A 0.34 0.34 0.0 0 1 130.65 212.48
  L 124.58 212.26
  A 0.34 0.34 0.0 0 0 124.22 212.61
  L 124.28 217.13
  A 0.34 0.34 0.0 0 0 124.62 217.47
  L 131.68 217.47
  A 0.34 0.34 0.0 0 1 132.02 217.79
  L 132.09 218.76
  A 0.34 0.34 0.0 0 1 131.76 219.13
  L 122.64 219.36
  A 0.34 0.34 0.0 0 1 122.29 219.02
  L 122.44 204.57
  A 0.34 0.34 0.0 0 1 122.78 204.23
  L 131.43 204.20
  A 0.34 0.34 0.0 0 1 131.77 204.57
  L 131.67 205.71
  A 0.34 0.34 0.0 0 1 131.32 206.02
  L 124.57 205.74
  A 0.34 0.34 0.0 0 0 124.21 206.09
  L 124.27 210.45
  A 0.34 0.34 0.0 0 0 124.61 210.78
  Z"
/>
<path fill="#cbb196" d="
  M 141.61 217.44
  Q 143.71 217.48 146.08 217.26
  Q 147.08 217.17 147.73 217.77
  Q 148.80 218.75 147.36 218.93
  Q 143.17 219.46 139.17 219.13
  A 0.64 0.63 2.0 0 1 138.59 218.51
  L 138.55 204.86
  Q 138.55 204.24 139.17 204.23
  L 139.64 204.23
  A 0.66 0.66 0.0 0 1 140.30 204.89
  L 140.35 216.16
  Q 140.36 217.41 141.61 217.44
  Z"
/>
<path fill="#cbb196" d="
  M 156.57 217.49
  L 163.74 217.50
  A 0.33 0.33 0.0 0 1 164.07 217.81
  L 164.14 218.81
  A 0.33 0.33 0.0 0 1 163.82 219.16
  L 154.85 219.29
  A 0.33 0.33 0.0 0 1 154.51 218.95
  L 154.68 204.58
  A 0.33 0.33 0.0 0 1 155.00 204.26
  L 163.31 204.17
  A 0.33 0.33 0.0 0 1 163.64 204.53
  L 163.55 205.68
  A 0.33 0.33 0.0 0 1 163.20 205.99
  L 156.54 205.68
  A 0.33 0.33 0.0 0 0 156.20 206.02
  L 156.40 210.46
  A 0.33 0.33 0.0 0 0 156.73 210.78
  L 162.79 210.72
  A 0.33 0.33 0.0 0 1 163.12 211.00
  L 163.28 211.95
  A 0.33 0.33 0.0 0 1 162.95 212.34
  L 156.60 212.29
  A 0.33 0.33 0.0 0 0 156.27 212.62
  L 156.24 217.16
  A 0.33 0.33 0.0 0 0 156.57 217.49
  Z"
/>
<path fill="#000000" d="
  M 78.19 206.88
  A 1.05 1.05 0.0 0 1 79.23 205.81
  L 80.81 205.79
  A 4.51 2.34 -1.0 0 1 85.36 208.05
  L 85.36 208.45
  A 4.51 2.34 -1.0 0 1 80.89 210.87
  L 79.31 210.89
  A 1.05 1.05 0.0 0 1 78.25 209.86
  L 78.19 206.88
  Z"
/>
<path fill="#000000" d="
  M 96.27 206.74
  A 0.84 0.84 0.0 0 1 97.12 205.91
  L 100.18 205.93
  A 3.32 3.05 0.5 0 1 103.47 209.01
  L 103.47 209.17
  A 3.32 3.05 0.5 0 1 100.12 212.19
  L 97.06 212.17
  A 0.84 0.84 0.0 0 1 96.23 211.32
  L 96.27 206.74
  Z"
/>
<circle fill="#000000" cx="258.14" cy="211.74" r="5.85"/>
<path fill="#000000" d="
  M 60.32 213.59
  L 62.67 207.56
  A 0.40 0.40 0.0 0 1 63.41 207.54
  L 66.11 213.42
  A 0.40 0.40 0.0 0 1 65.76 213.98
  L 60.71 214.13
  A 0.40 0.40 0.0 0 1 60.32 213.59
  Z"
/>
<path fill="#000000" d="
  M 215.19 213.49
  L 217.60 207.57
  A 0.40 0.40 0.0 0 1 218.34 207.57
  L 220.77 213.48
  A 0.40 0.40 0.0 0 1 220.40 214.03
  L 215.57 214.04
  A 0.40 0.40 0.0 0 1 215.19 213.49
  Z"
/>
<path fill="#000000" d="
  M 78.19 213.42
  A 1.12 1.12 0.0 0 1 79.29 212.28
  L 82.54 212.22
  A 3.15 2.58 -1.1 0 1 85.74 214.74
  L 85.74 214.98
  A 3.15 2.58 -1.1 0 1 82.64 217.62
  L 79.39 217.68
  A 1.12 1.12 0.0 0 1 78.25 216.58
  L 78.19 213.42
  Z"
/>
</svg>
